<?xml version="1.0" standalone="no"?><!DOCTYPE svg PUBLIC "-//W3C//DTD SVG 1.1//EN" "http://www.w3.org/Graphics/SVG/1.1/DTD/svg11.dtd"><svg t="1596032859034" class="icon" viewBox="0 0 1024 1024" version="1.1" xmlns="http://www.w3.org/2000/svg" p-id="10140" xmlns:xlink="http://www.w3.org/1999/xlink" width="200" height="200"><defs><style type="text/css"></style></defs><path d="M0 0m58.514286 0l906.971428 0q58.514286 0 58.514286 58.514286l0 906.971428q0 58.514286-58.514286 58.514286l-906.971428 0q-58.514286 0-58.514286-58.514286l0-906.971428q0-58.514286 58.514286-58.514286Z" fill="#000000" opacity=".6" p-id="10141" data-spm-anchor-id="a313x.7781069.0.i55" class="selected"></path><path d="M263.314286 263.314286h497.371428v497.371428H263.314286z" fill="#D8D8D8" fill-opacity="0" p-id="10142"></path><path d="M473.717029 746.8032c-3.130514 0-7.855543-1.565257-9.4208-1.565257-6.290286-3.145143-9.4208-11.000686-9.4208-17.276343v-169.691429L282.038857 310.037943c-3.130514-6.290286-6.290286-14.145829-1.565257-22.001372 3.145143-4.7104 9.4208-9.4208 17.276343-9.4208h428.909714c7.870171 0 14.160457 3.145143 17.290972 9.4208 3.145143 6.290286 1.579886 14.145829-1.565258 18.870858L571.128686 558.255543v130.413714c0 7.855543-3.145143 14.1312-11.000686 17.276343l-78.555429 39.277714c-3.130514 1.565257-4.7104 1.565257-7.855542 1.565257" fill="#FFFFFF" p-id="10143"></path></svg>