<?xml version="1.0" standalone="no"?><!DOCTYPE svg PUBLIC "-//W3C//DTD SVG 1.1//EN" "http://www.w3.org/Graphics/SVG/1.1/DTD/svg11.dtd"><svg t="1595330553276" class="icon" viewBox="0 0 1024 1024" version="1.1" xmlns="http://www.w3.org/2000/svg" p-id="24044" xmlns:xlink="http://www.w3.org/1999/xlink" width="200" height="200"><defs><style type="text/css"></style></defs><path d="M843.729758 72.252602c16.618098 0 30.165461 13.547363 30.165462 30.165461v819.163874c0 16.618098-13.547363 30.165461-30.165462 30.165461H180.450873c-16.618098 0-30.165461-13.547363-30.165461-30.165461V102.418063c0-16.618098 13.547363-30.165461 30.165461-30.165461h663.278885m0-72.252602H180.450873C123.732581 0 78.03281 45.880402 78.03281 102.418063v819.163874c0 56.537661 45.880402 102.418063 102.418063 102.418063h663.278885c56.537661 0 102.418063-45.880402 102.418063-102.418063V102.418063c0-56.537661-45.880402-102.418063-102.418063-102.418063z" fill="#323333" p-id="24045"></path><path d="M712.049391 72.252602v186.411713L668.336567 237.349797c-10.115364-4.877051-21.495149-7.586523-32.874934-7.586523s-22.75957 2.528841-32.874933 7.586523l-43.712825 21.133886V72.252602h153.175516m55.273241-72.252602H503.781267c-9.392838 0-17.159993 6.863997-17.159993 15.353678v332.903863c0 8.850944 8.128418 15.353678 17.159993 15.353678 2.709473 0 5.418945-0.541895 8.128417-1.806315l122.287529-59.247134c0.361263-0.180632 0.903158-0.361263 1.445052-0.361263s0.903158 0.180632 1.445052 0.361263l122.287529 59.247134c2.709473 1.264421 5.418945 1.806315 8.128417 1.806315 9.031575 0 17.159993-6.502734 17.159993-15.353678V15.353678c-0.361263-8.489681-7.947786-15.353678-17.340624-15.353678zM748.175692 574.227553H275.824308c-19.869466 0-36.126301-16.256835-36.126301-36.126301s16.256835-36.126301 36.126301-36.126301h472.351384c19.869466 0 36.126301 16.256835 36.126301 36.126301s-16.076204 36.126301-36.126301 36.126301zM538.101252 765.516317H275.824308c-19.869466 0-36.126301-16.256835-36.126301-36.126301s16.256835-36.126301 36.126301-36.126301h262.276944c19.869466 0 36.126301 16.256835 36.126301 36.126301s-16.256835 36.126301-36.126301 36.126301z" fill="#323333" p-id="24046"></path></svg>